<svg width="594" height="406" viewBox="0 0 594 406" fill="none" xmlns="http://www.w3.org/2000/svg">
<g clip-path="url(#clip0_6132_36983)">
<path d="M10.5709 395.806H585.477C592.059 378.261 595.115 354.505 594.105 329.705C592.607 292.798 582.106 253.577 560.845 229.064C534.365 193.754 518.283 187.016 503.549 179.147C496.779 175.538 489.864 171.405 482.908 164.355C457.402 137.831 488.134 41.083 401.116 12.788C312.825 -12.5802 221.418 71.0596 183.134 72.3259C163.083 74.4318 145.129 62.585 132.518 59.7439C75.1822 47.0714 -19.9556 143.662 20.3246 308.124C22.4637 316.842 23.9984 322.457 24.3809 327.636C24.4307 328.299 24.4624 328.953 24.4715 329.605C24.7906 348.885 6.58474 374.613 10.5709 395.806Z" fill="#E9F5FF"/>
<path d="M286.117 179.512C287.885 179.631 288.728 178.718 288.849 177.052C298.732 178.917 308.776 177.766 318.659 178.56C340.715 180.265 362.811 181.098 384.907 181.932C390.17 190.421 395.795 198.673 404.553 204.108C404.553 240.605 404.553 277.102 404.513 313.599C404.513 315.9 405.396 318.479 403.428 320.541C398.285 316.574 395.313 317.011 391.817 322.287C389.969 325.064 388.362 323.993 386.474 322.168C384.505 320.264 382.135 320.343 379.765 321.811C377.314 323.318 375.426 325.143 376.551 328.198C378.077 332.284 375.948 332.125 373.015 331.53C369.882 330.895 366.828 332.562 367.19 335.22C367.953 341.21 366.547 345.851 362.972 350.85C360.159 354.738 365.784 356.443 367.752 359.022C356.182 360.014 344.612 360.887 333.041 361.997C317.453 363.465 301.906 365.092 286.318 366.639C274.787 367.789 263.297 369.535 251.727 369.892C245.179 370.09 238.59 372.907 231.961 370.368C231.961 305.189 232.041 240.01 232.081 174.831C242.045 174.434 251.848 175.545 261.65 177.25C261.891 180.424 264.543 181.892 266.511 180.424C269.243 178.361 270.81 181.059 272.899 180.741H272.779C272.779 182.963 274.868 184.034 275.912 183.003C278.926 179.988 282.823 180.662 286.278 179.551H286.117V179.512ZM271.493 267.779C271.493 292.058 271.493 316.336 271.493 340.615C271.493 343.987 271.212 345.851 276.435 345.177C292.183 343.193 308.093 342.003 323.962 341.25C329.385 341.012 330.832 339.702 330.791 334.387C330.591 289.043 330.671 243.739 330.671 198.395C330.671 197.364 330.631 196.372 330.671 195.34C330.791 192.801 329.707 191.572 327.055 191.691C319.261 192.087 311.628 190.143 303.794 190.342C295.437 190.54 287.041 191.294 278.684 189.39C274.024 188.319 271.292 189.469 271.373 195.499C271.734 219.579 271.533 243.659 271.533 267.74L271.493 267.779Z" fill="white"/>
<path d="M232.122 174.828C232.122 240.007 232.041 305.186 232.001 370.366C231.037 370.048 230.073 369.771 229.149 369.453C217.739 365.407 207.053 359.535 195.121 356.957C195.121 333.472 195.121 309.987 195.08 286.462C195.08 259.327 195.04 232.232 195 205.097C195 199.9 195 194.664 195.04 189.467C207.414 184.627 219.467 178.914 232.162 174.868L232.122 174.828Z" fill="#ACD5FF"/>
<path d="M389.808 121.195C389.326 121.632 388.884 122.068 388.402 122.465C388.884 122.028 389.326 121.592 389.808 121.195Z" fill="#EC5F24"/>
<path d="M494.547 121.474C493.904 121.236 493.382 120.918 493.583 120.125C493.904 120.561 494.225 121.037 494.547 121.474Z" fill="#EAEFF8"/>
<path d="M271.494 267.777C271.494 243.696 271.695 219.616 271.334 195.536C271.253 189.506 273.985 188.356 278.646 189.427C287.002 191.331 295.399 190.577 303.755 190.379C311.589 190.18 319.222 192.124 327.016 191.728C329.668 191.609 330.753 192.838 330.632 195.377C330.592 196.369 330.632 197.401 330.632 198.432C330.632 243.776 330.552 289.08 330.753 334.424C330.753 339.739 329.346 341.049 323.923 341.287C308.054 342.04 292.144 343.23 276.396 345.214C271.213 345.849 271.454 343.984 271.454 340.652C271.454 316.373 271.454 292.095 271.454 267.816L271.494 267.777ZM287.564 325.339C284.913 325.339 282.261 325.339 279.65 325.339C275.713 325.339 276.396 328.195 276.476 330.456C276.597 332.757 275.191 336.288 279.61 336.169C284.632 336.05 289.654 336.486 294.756 335.455C299.456 334.503 298.452 331.647 298.613 328.79C298.813 325.061 296.202 325.299 293.711 325.299C291.662 325.299 289.654 325.299 287.605 325.299L287.564 325.339ZM287.886 206.326C287.886 206.326 287.886 206.326 287.886 206.287C290.537 206.287 293.229 206.366 295.881 206.287C299.014 206.168 298.613 203.788 298.532 201.844C298.452 199.82 299.496 196.686 295.961 196.805C290.778 197.044 285.837 195.457 280.735 195.457C278.967 195.457 277.119 195.139 276.436 197.718C274.869 203.748 276.717 206.287 282.985 206.326C284.632 206.326 286.279 206.326 287.926 206.326H287.886ZM314.763 325.339C312.513 325.339 310.263 325.537 308.054 325.339C303.956 324.942 303.434 327.124 303.434 330.417C303.434 333.59 304.157 335.217 307.813 335.138C312.473 335.058 317.053 334.503 321.673 333.987C324.967 333.63 325.691 332.4 325.731 329.504C325.731 326.41 324.606 325.101 321.432 325.339C319.222 325.498 316.973 325.339 314.723 325.339H314.763ZM314.361 206.287C316.812 206.287 319.263 206.168 321.673 206.287C325.048 206.525 325.691 204.779 325.731 201.883C325.771 198.749 324.566 197.678 321.432 197.678C317.415 197.678 313.357 198.273 309.339 197.083C306.929 196.369 303.755 195.258 303.594 199.622C303.434 202.875 302.469 206.922 308.295 206.287C310.304 206.088 312.352 206.287 314.401 206.287H314.361ZM287.605 257.303C290.055 257.303 292.506 257.184 294.957 257.303C298.171 257.462 298.572 255.558 298.572 253.059C298.572 250.559 298.251 248.695 294.997 248.774C290.296 248.893 285.556 248.973 280.855 248.774C277.32 248.616 276.235 250.004 276.275 253.336C276.275 256.708 277.882 257.502 280.815 257.303C283.065 257.184 285.315 257.303 287.564 257.303H287.605ZM287.846 223.345C285.395 223.345 282.904 223.504 280.494 223.345C277.119 223.107 276.356 224.734 276.356 227.709C276.356 230.883 277.521 232.033 280.695 231.914C285.194 231.755 289.694 231.755 294.193 231.914C297.206 232.033 298.613 231.16 298.653 227.868C298.693 224.416 297.448 223.068 293.992 223.385C291.944 223.544 289.895 223.385 287.846 223.385V223.345ZM314.16 231.835C316.41 231.835 318.66 231.716 320.91 231.835C324.164 232.073 325.731 231.16 325.771 227.511C325.771 223.782 324.003 223.147 320.829 223.266C316.531 223.425 312.232 223.425 307.933 223.266C304.96 223.187 303.434 223.94 303.393 227.273C303.393 230.684 304.518 232.113 308.014 231.795C310.062 231.597 312.111 231.795 314.16 231.795V231.835ZM314.723 321.689C317.173 321.689 319.624 321.57 322.075 321.689C325.329 321.848 325.65 319.944 325.65 317.444C325.65 314.945 325.289 313.081 322.075 313.16C317.374 313.279 312.634 313.279 307.933 313.16C305 313.081 303.393 313.755 303.353 317.127C303.353 320.459 304.358 322.007 307.933 321.689C310.183 321.491 312.433 321.689 314.683 321.65L314.723 321.689ZM314.401 211.206C311.951 211.206 309.5 211.325 307.049 211.206C303.795 211.047 303.434 212.951 303.474 215.451C303.474 217.95 303.795 219.815 307.049 219.735C311.75 219.616 316.49 219.616 321.191 219.735C324.124 219.815 325.731 219.18 325.771 215.768C325.771 212.436 324.767 210.889 321.191 211.166C318.941 211.365 316.691 211.166 314.442 211.206H314.401ZM314.562 245.164C316.812 245.164 319.062 245.045 321.311 245.164C324.445 245.402 325.731 244.252 325.691 241.038C325.65 238.103 324.967 236.476 321.593 236.635C316.892 236.833 312.152 236.833 307.451 236.635C304.036 236.516 303.434 238.182 303.393 241.078C303.313 244.331 304.719 245.402 307.813 245.164C310.062 245.006 312.312 245.164 314.562 245.164ZM287.123 219.656C289.573 219.656 292.064 219.497 294.475 219.656C297.889 219.894 298.532 218.188 298.572 215.252C298.613 212.039 297.327 210.968 294.193 211.087C289.694 211.246 285.194 211.246 280.695 211.087C277.601 210.968 276.315 211.96 276.275 215.213C276.235 218.704 277.601 219.934 280.976 219.656C283.025 219.497 285.074 219.656 287.123 219.656ZM287.283 313.2C284.833 313.2 282.382 313.319 279.931 313.2C276.677 313.041 276.315 314.945 276.356 317.444C276.356 319.944 276.677 321.808 279.931 321.729C284.632 321.61 289.372 321.61 294.073 321.729C297.006 321.808 298.613 321.173 298.653 317.762C298.653 314.429 297.648 312.882 294.073 313.16C291.823 313.358 289.573 313.16 287.323 313.2H287.283ZM314.241 308.32C316.691 308.32 319.182 308.161 321.593 308.32C325.008 308.558 325.65 306.852 325.691 303.917C325.731 300.703 324.445 299.632 321.311 299.751C316.812 299.91 312.312 299.91 307.813 299.751C304.719 299.632 303.434 300.624 303.393 303.877C303.353 307.368 304.719 308.598 308.094 308.32C310.143 308.161 312.192 308.32 314.241 308.32ZM314.401 248.854C311.951 248.854 309.5 248.973 307.049 248.854C303.795 248.695 303.434 250.599 303.474 253.098C303.474 255.598 303.795 257.462 307.049 257.383C311.75 257.264 316.49 257.264 321.191 257.383C324.124 257.462 325.731 256.827 325.771 253.416C325.771 250.083 324.767 248.536 321.191 248.814C318.941 249.012 316.691 248.814 314.442 248.854H314.401ZM287.243 308.32C289.493 308.32 291.743 308.161 293.992 308.32C297.488 308.598 298.653 307.209 298.613 303.798C298.613 300.465 297.086 299.672 294.113 299.791C289.814 299.95 285.516 299.95 281.217 299.791C278.083 299.672 276.275 300.307 276.275 304.036C276.275 307.646 277.882 308.598 281.136 308.36C283.185 308.201 285.234 308.36 287.283 308.36L287.243 308.32ZM314.522 296.181C316.973 296.181 319.423 296.062 321.874 296.181C324.967 296.34 325.61 294.753 325.65 292.095C325.65 289.199 325.048 287.493 321.593 287.652C316.892 287.85 312.152 287.85 307.451 287.652C304.076 287.533 303.393 289.159 303.353 292.055C303.313 295.268 304.599 296.419 307.732 296.181C309.982 296.022 312.232 296.181 314.482 296.181H314.522ZM287.846 262.183C285.596 262.183 283.346 262.302 281.096 262.183C277.842 261.945 276.275 262.897 276.275 266.507C276.275 270.236 278.083 270.871 281.217 270.752C285.516 270.593 289.814 270.593 294.113 270.752C297.086 270.831 298.613 270.077 298.613 266.745C298.613 263.333 297.488 261.905 293.992 262.223C291.944 262.381 289.895 262.223 287.846 262.223V262.183ZM314.924 262.183C312.674 262.183 310.424 262.302 308.174 262.183C304.88 261.945 303.353 262.937 303.353 266.547C303.353 270.315 305.201 270.871 308.295 270.752C312.593 270.593 316.892 270.593 321.191 270.752C324.204 270.871 325.65 270.038 325.691 266.705C325.691 263.294 324.525 261.905 321.07 262.183C319.021 262.342 316.973 262.183 314.924 262.183ZM287.283 287.691C284.833 287.691 282.382 287.81 279.931 287.691C276.677 287.533 276.315 289.437 276.356 291.936C276.356 294.435 276.677 296.3 279.931 296.221C284.632 296.102 289.372 296.102 294.073 296.221C297.006 296.3 298.613 295.665 298.653 292.253C298.653 288.921 297.648 287.374 294.073 287.652C291.823 287.85 289.573 287.652 287.323 287.691H287.283ZM287.846 274.322C285.596 274.322 283.346 274.441 281.096 274.322C277.842 274.084 276.275 274.997 276.235 278.646C276.235 282.375 278.003 283.01 281.177 282.891C285.475 282.732 289.774 282.732 294.073 282.891C297.046 282.97 298.572 282.217 298.613 278.884C298.613 275.473 297.488 274.045 293.992 274.362C291.944 274.56 289.895 274.362 287.846 274.362V274.322ZM314.924 274.322C312.674 274.322 310.424 274.441 308.174 274.322C304.88 274.084 303.353 275.076 303.353 278.686C303.353 282.455 305.201 283.01 308.295 282.891C312.593 282.732 316.892 282.732 321.191 282.891C324.204 283.01 325.65 282.177 325.691 278.845C325.691 275.433 324.525 274.045 321.07 274.322C319.021 274.481 316.973 274.322 314.924 274.322Z" fill="#DFEFFF"/>
<path d="M429.262 213.83C431.231 212.997 432.396 215.337 434.204 215.06C436.855 217.559 451.117 218.432 453.488 216.131C453.93 215.694 453.769 214.623 453.89 213.87C455.296 212.679 456.943 212.283 458.751 212.322C458.751 249.335 458.751 286.388 458.871 323.401C458.871 326.773 458.67 328.796 454.171 329.232C444.649 330.145 435.128 331.375 425.526 331.494C423.397 332.049 420.062 329.708 419.419 333.913C418.857 333.874 418.335 333.834 417.772 333.794C417.37 333.715 417.17 333.477 417.089 333.08C416.567 330.303 417.611 327.804 418.294 325.226C419.942 324.353 421.709 323.956 423.557 324.154C427.495 324.631 407.889 323.282 407.889 318.759C407.889 314.276 427.655 322.211 424.24 322.369C421.83 322.488 419.058 318.997 416.687 318.64C410.742 317.767 408.291 316.339 408.291 321.655C407.648 323.044 406.724 324.194 405.037 323.877C403.068 323.52 403.55 321.814 403.43 320.465C405.077 318.799 404.755 316.776 404.595 314.792C404.595 314.356 404.514 313.959 404.514 313.523C404.555 277.026 404.555 240.528 404.555 204.031C407.045 205.539 409.536 207.046 412.027 208.554C407.969 209.506 409.818 212.679 409.657 214.98C409.536 216.409 410.701 217.083 412.067 217.083C416.969 217.083 421.87 217.083 426.771 217.083C429.142 217.083 429.142 215.337 429.182 213.711L429.262 213.83ZM444.167 314.435C442.962 314.435 441.716 314.514 440.511 314.435C436.735 314.157 433.963 314.316 434.043 319.553C434.123 324.71 437.096 324.353 440.391 324.115C443.806 323.837 447.18 323.083 450.595 323.004C453.93 322.885 453.89 320.862 453.93 318.561C454.01 315.982 453.367 314.276 450.234 314.475C448.225 314.594 446.176 314.475 444.127 314.475L444.167 314.435ZM443.685 275.558C445.533 275.558 447.381 275.439 449.229 275.558C452.524 275.835 454.01 274.804 454.05 271.234C454.05 267.465 452.202 266.909 449.109 267.028C445.413 267.187 441.716 267.187 438.061 267.028C435.007 266.909 434.244 268.338 434.204 271.075C434.204 273.892 434.686 275.835 438.181 275.558C440.029 275.399 441.877 275.558 443.725 275.558H443.685ZM419.259 240.33C420.906 240.33 422.553 240.211 424.16 240.33C427.575 240.608 429.423 239.775 429.383 235.768C429.302 231.801 427.093 231.721 424.2 231.801C420.504 231.88 416.808 231.92 413.152 231.801C409.898 231.682 409.536 233.546 409.536 236.046C409.536 238.545 409.858 240.489 413.112 240.33C415.161 240.211 417.21 240.33 419.259 240.33ZM443.926 231.84C442.681 231.84 441.475 231.84 440.23 231.84C437.177 231.84 434.123 231.166 434.123 236.085C434.123 241.044 437.257 240.29 440.27 240.33C443.565 240.33 446.819 240.211 450.113 240.33C453.086 240.449 454.05 239.14 454.01 236.363C454.01 233.586 453.648 231.563 450.073 231.801C448.024 231.96 445.975 231.801 443.926 231.801V231.84ZM419.58 252.469C420.825 252.469 422.031 252.469 423.276 252.469C426.289 252.469 429.423 253.223 429.423 248.225C429.423 243.266 426.329 243.98 423.316 243.98C420.022 243.98 416.768 244.138 413.473 243.98C409.938 243.781 409.576 245.765 409.536 248.542C409.536 251.319 410.46 252.707 413.433 252.509C415.482 252.39 417.531 252.509 419.58 252.509V252.469ZM444.248 299.836C445.493 299.836 446.698 299.836 447.944 299.836C450.957 299.836 454.09 300.55 454.09 295.591C454.09 290.633 450.997 291.347 447.944 291.347C444.649 291.347 441.395 291.466 438.101 291.347C435.128 291.228 434.164 292.497 434.204 295.314C434.204 298.091 434.565 300.154 438.101 299.876C440.15 299.717 442.199 299.876 444.248 299.876V299.836ZM419.218 299.836C420.866 299.836 422.513 299.717 424.12 299.836C427.454 300.114 429.463 299.44 429.423 295.353C429.343 291.426 427.253 291.228 424.321 291.307C420.625 291.426 416.928 291.466 413.273 291.307C410.099 291.188 409.576 292.894 409.617 295.472C409.617 297.892 409.818 299.955 413.112 299.797C415.161 299.717 417.21 299.797 419.259 299.797L419.218 299.836ZM419.58 275.558C420.825 275.558 422.031 275.558 423.276 275.558C426.249 275.518 429.463 276.351 429.463 271.353C429.463 266.433 426.45 267.028 423.397 267.068C420.102 267.068 416.848 267.227 413.554 267.068C410.059 266.87 409.576 268.774 409.576 271.591C409.576 274.328 410.42 275.796 413.433 275.597C415.482 275.478 417.531 275.597 419.58 275.597V275.558ZM444.288 287.697C445.533 287.697 446.738 287.697 447.984 287.697C450.997 287.697 454.131 288.451 454.131 283.452C454.131 278.493 451.037 279.207 448.024 279.207C444.73 279.207 441.475 279.366 438.181 279.207C434.646 279.009 434.284 280.993 434.244 283.77C434.244 286.547 435.168 287.935 438.141 287.737C440.19 287.618 442.239 287.737 444.288 287.737V287.697ZM419.781 279.207C417.933 279.207 416.085 279.326 414.237 279.207C410.862 278.89 409.496 280.16 409.536 283.651C409.576 286.904 410.902 287.895 413.956 287.737C417.853 287.578 421.749 287.578 425.606 287.737C428.74 287.856 429.383 286.229 429.343 283.611C429.302 281.191 429.222 279.088 425.888 279.247C423.839 279.326 421.79 279.247 419.741 279.247L419.781 279.207ZM443.765 263.379C446.015 263.379 448.265 263.299 450.515 263.379C453.207 263.498 454.01 262.149 454.01 259.65C454.01 257.071 452.965 256 450.354 256.079C446.055 256.159 441.757 256.159 437.458 256.079C435.047 256.079 434.284 257.269 434.284 259.491C434.284 261.832 434.766 263.458 437.619 263.339C439.668 263.26 441.716 263.339 443.765 263.339V263.379ZM419.821 263.379C421.669 263.379 423.517 263.299 425.325 263.379C428.137 263.537 429.423 262.506 429.383 259.57C429.343 256.912 428.178 256.04 425.646 256.079C421.549 256.159 417.451 256.159 413.353 256.079C410.822 256.04 409.657 256.952 409.617 259.57C409.536 262.546 410.862 263.537 413.674 263.379C415.723 263.26 417.772 263.379 419.821 263.379ZM419.58 310.746C421.629 310.746 423.678 310.666 425.727 310.746C428.338 310.865 429.423 309.794 429.383 307.175C429.383 304.716 428.619 303.367 425.888 303.446C421.589 303.526 417.29 303.526 412.991 303.446C410.179 303.407 409.617 304.954 409.657 307.294C409.657 309.476 410.38 310.785 412.831 310.706C415.08 310.666 417.33 310.706 419.58 310.706V310.746ZM443.765 310.746C446.015 310.746 448.265 310.666 450.515 310.746C453.207 310.865 454.01 309.516 454.05 307.056C454.05 304.478 453.046 303.407 450.394 303.446C446.096 303.526 441.797 303.526 437.498 303.446C435.088 303.446 434.324 304.636 434.284 306.818C434.284 309.159 434.766 310.785 437.619 310.706C439.668 310.627 441.716 310.706 443.765 310.706V310.746ZM444.489 228.151C446.337 228.151 448.185 228.072 449.993 228.151C452.805 228.31 454.09 227.278 454.05 224.343C454.01 221.685 452.845 220.812 450.314 220.852C446.216 220.931 442.118 220.931 438.02 220.852C435.489 220.812 434.324 221.724 434.284 224.343C434.204 227.318 435.53 228.31 438.342 228.151C440.391 228.032 442.44 228.151 444.489 228.151Z" fill="#DFEFFF"/>
<path d="M272.781 180.697C273.987 180.697 276.076 181.054 276.317 180.539C279.169 174.707 282.785 177.881 286.32 179.507C282.865 180.618 278.968 179.944 275.955 182.959C274.911 183.99 272.821 182.959 272.821 180.697H272.781Z" fill="#FDFDFE"/>
<path d="M447.823 337.523C444.77 339.269 443.444 342.998 439.708 344.069C438.984 344.267 438.02 346.766 438.342 347.084C441.957 350.694 437.136 352.122 436.534 354.581C435.128 353.59 433.601 353.034 431.833 353.391C431.552 350.138 432.597 346.29 427.294 345.735C425.084 345.497 425.084 343.037 426.048 341.926C429.342 338.118 427.575 334.865 425.526 331.493C435.128 331.374 444.649 330.144 454.171 329.232C458.67 328.795 458.911 326.812 458.871 323.4C458.791 286.387 458.791 249.335 458.751 212.322C458.791 211.965 458.871 211.608 458.911 211.251C467.107 209.981 473.254 204.903 479.762 200.5C479.762 213.314 479.762 226.127 479.762 238.981C475.825 237.513 474.298 231.999 469.357 232.356C469.317 240.012 476.428 242.472 479.842 247.55C480.325 279.167 477.673 310.745 478.557 342.363C475.624 342.283 472.169 343.315 472.249 338.356C472.249 336.174 469.638 334.825 468.393 335.42C464.777 337.166 462.768 333.953 460.639 333.715C456.581 333.239 452.082 336.135 447.783 337.602H447.823V337.523Z" fill="white"/>
<path d="M400.938 184.195C401.46 184.671 401.982 185.147 402.545 185.663C402.022 185.187 401.5 184.711 400.938 184.195Z" fill="#EC5F24"/>
<path d="M409.574 192.602C410.056 193.117 410.538 193.633 411.061 194.188C410.579 193.673 410.096 193.157 409.574 192.602Z" fill="#EC5F24"/>
<path d="M429.261 213.829C429.221 215.495 429.221 217.201 426.85 217.201C421.949 217.201 417.048 217.201 412.146 217.201C410.78 217.201 409.615 216.527 409.736 215.099C409.937 212.798 408.048 209.624 412.106 208.672C417.811 210.457 423.114 213.551 429.261 213.829Z" fill="#83BEFB"/>
<path d="M453.885 213.829C453.764 214.582 453.925 215.654 453.483 216.09C451.113 218.391 436.851 217.518 434.199 215.019C440.748 214.622 447.336 214.225 453.885 213.789V213.829Z" fill="#83BEFB"/>
<path d="M287.605 325.341C289.654 325.341 291.662 325.341 293.711 325.341C296.202 325.341 298.814 325.063 298.613 328.832C298.452 331.688 299.497 334.504 294.756 335.496C289.654 336.528 284.672 336.091 279.61 336.21C275.191 336.329 276.597 332.799 276.476 330.498C276.356 328.236 275.673 325.341 279.65 325.38C282.302 325.38 284.953 325.38 287.565 325.38L287.605 325.341Z" fill="#83BEFB"/>
<path d="M287.923 206.332C286.276 206.332 284.629 206.332 282.982 206.332C276.715 206.332 274.907 203.713 276.433 197.723C277.116 195.105 278.964 195.462 280.732 195.462C285.834 195.462 290.776 197.009 295.958 196.811C299.494 196.652 298.449 199.825 298.53 201.849C298.61 203.793 299.012 206.212 295.878 206.292C293.226 206.371 290.535 206.292 287.883 206.292C287.883 206.292 287.883 206.292 287.883 206.332H287.923Z" fill="#83BEFB"/>
<path d="M314.801 325.336C317.051 325.336 319.3 325.455 321.51 325.336C324.684 325.098 325.809 326.407 325.809 329.502C325.809 332.398 325.046 333.627 321.751 333.984C317.131 334.5 312.551 335.056 307.891 335.135C304.195 335.175 303.512 333.548 303.512 330.414C303.512 327.082 304.034 324.94 308.132 325.336C310.341 325.574 312.591 325.336 314.841 325.376L314.801 325.336Z" fill="#83BEFB"/>
<path d="M314.402 206.331C312.353 206.331 310.304 206.173 308.295 206.331C302.47 206.966 303.434 202.92 303.595 199.667C303.796 195.303 306.97 196.414 309.34 197.128C313.357 198.318 317.415 197.723 321.433 197.723C324.566 197.723 325.772 198.794 325.731 201.928C325.691 204.824 325.048 206.57 321.674 206.331C319.263 206.173 316.813 206.331 314.362 206.331H314.402Z" fill="#83BEFB"/>
<path d="M287.645 257.313C285.395 257.313 283.145 257.234 280.895 257.313C277.962 257.472 276.355 256.718 276.355 253.346C276.355 249.974 277.4 248.586 280.935 248.784C285.636 248.982 290.336 248.943 295.077 248.784C298.331 248.705 298.653 250.569 298.653 253.069C298.653 255.568 298.291 257.472 295.037 257.313C292.586 257.194 290.136 257.313 287.685 257.313H287.645Z" fill="#83BEFB"/>
<path d="M287.645 245.212C285.395 245.212 283.145 245.132 280.895 245.212C277.962 245.37 276.355 244.617 276.355 241.245C276.355 237.873 277.4 236.484 280.935 236.683C285.636 236.881 290.336 236.841 295.077 236.683C298.331 236.603 298.653 238.468 298.653 240.967C298.653 243.466 298.291 245.37 295.037 245.212C292.586 245.093 290.136 245.212 287.685 245.212H287.645Z" fill="#83BEFB"/>
<path d="M444.25 253.016C442 253.016 439.751 252.937 437.501 253.016C434.568 253.175 432.961 252.421 432.961 249.049C432.961 245.677 434.005 244.289 437.541 244.487C442.241 244.686 446.942 244.646 451.683 244.487C454.937 244.408 455.258 246.272 455.258 248.772C455.258 251.271 454.896 253.175 451.642 253.016C449.192 252.897 446.741 253.016 444.29 253.016H444.25Z" fill="#83BEFB"/>
<path d="M287.886 223.352C289.934 223.352 291.983 223.51 294.032 223.352C297.487 223.074 298.733 224.383 298.693 227.834C298.693 231.127 297.246 232 294.233 231.881C289.734 231.722 285.234 231.722 280.734 231.881C277.561 232 276.355 230.849 276.396 227.676C276.396 224.7 277.199 223.074 280.534 223.312C282.984 223.471 285.435 223.312 287.886 223.312V223.352Z" fill="#83BEFB"/>
<path d="M314.24 231.839C312.191 231.839 310.142 231.681 308.093 231.839C304.598 232.157 303.473 230.728 303.473 227.317C303.473 223.984 304.999 223.191 308.012 223.31C312.311 223.469 316.61 223.469 320.909 223.31C324.082 223.191 325.85 223.826 325.85 227.555C325.85 231.165 324.243 232.117 320.989 231.879C318.739 231.72 316.489 231.879 314.24 231.879V231.839Z" fill="#83BEFB"/>
<path d="M314.802 321.691C312.552 321.691 310.302 321.532 308.053 321.731C304.517 322.048 303.473 320.501 303.473 317.168C303.473 313.796 305.12 313.122 308.053 313.201C312.753 313.32 317.494 313.32 322.194 313.201C325.448 313.122 325.77 314.947 325.77 317.486C325.77 319.985 325.408 321.889 322.194 321.731C319.744 321.612 317.293 321.731 314.842 321.731L314.802 321.691Z" fill="#83BEFB"/>
<path d="M314.479 211.213C316.729 211.213 318.979 211.372 321.229 211.173C324.764 210.856 325.809 212.403 325.809 215.775C325.809 219.187 324.162 219.822 321.229 219.742C316.528 219.623 311.788 219.623 307.087 219.742C303.833 219.822 303.512 217.957 303.512 215.458C303.512 212.959 303.873 211.054 307.087 211.213C309.538 211.332 311.989 211.213 314.439 211.213H314.479Z" fill="#83BEFB"/>
<path d="M314.642 245.164C312.392 245.164 310.143 245.045 307.893 245.164C304.799 245.363 303.433 244.292 303.474 241.078C303.514 238.182 304.116 236.476 307.531 236.635C312.232 236.834 316.972 236.834 321.673 236.635C325.088 236.516 325.73 238.143 325.771 241.039C325.811 244.252 324.525 245.402 321.392 245.164C319.142 245.006 316.892 245.164 314.642 245.164Z" fill="#83BEFB"/>
<path d="M287.204 219.656C285.155 219.656 283.106 219.537 281.057 219.656C277.682 219.934 276.316 218.704 276.356 215.213C276.397 211.96 277.722 211.008 280.776 211.087C285.275 211.246 289.775 211.246 294.274 211.087C297.408 210.968 298.694 212.039 298.653 215.252C298.613 218.188 297.93 219.894 294.556 219.656C292.105 219.497 289.654 219.656 287.204 219.656Z" fill="#83BEFB"/>
<path d="M287.362 313.205C289.612 313.205 291.862 313.364 294.112 313.166C297.647 312.848 298.692 314.395 298.692 317.767C298.692 321.179 297.044 321.814 294.112 321.734C289.411 321.615 284.671 321.615 279.97 321.734C276.716 321.814 276.395 319.949 276.395 317.45C276.395 314.951 276.756 313.047 279.97 313.205C282.421 313.324 284.871 313.205 287.322 313.205H287.362Z" fill="#83BEFB"/>
<path d="M314.321 308.32C312.272 308.32 310.223 308.201 308.174 308.32C304.799 308.598 303.433 307.368 303.474 303.877C303.514 300.624 304.839 299.672 307.893 299.751C312.392 299.91 316.892 299.91 321.392 299.751C324.525 299.632 325.811 300.703 325.771 303.916C325.73 306.852 325.047 308.558 321.673 308.32C319.222 308.161 316.771 308.32 314.321 308.32Z" fill="#83BEFB"/>
<path d="M314.479 248.861C316.729 248.861 318.979 249.02 321.229 248.822C324.764 248.504 325.809 250.052 325.809 253.424C325.809 256.835 324.162 257.47 321.229 257.391C316.528 257.272 311.788 257.272 307.087 257.391C303.833 257.47 303.512 255.606 303.512 253.106C303.512 250.607 303.873 248.703 307.087 248.861C309.538 248.98 311.989 248.861 314.439 248.861H314.479Z" fill="#83BEFB"/>
<path d="M287.32 308.316C285.272 308.316 283.223 308.197 281.174 308.316C277.919 308.554 276.353 307.642 276.312 303.992C276.312 300.263 278.08 299.628 281.254 299.747C285.553 299.906 289.851 299.906 294.15 299.747C297.123 299.668 298.65 300.422 298.65 303.754C298.65 307.166 297.525 308.594 294.03 308.277C291.78 308.078 289.53 308.277 287.28 308.277L287.32 308.316Z" fill="#83BEFB"/>
<path d="M314.602 296.18C312.352 296.18 310.102 296.061 307.853 296.18C304.719 296.418 303.433 295.228 303.474 292.055C303.514 289.119 304.197 287.493 307.571 287.651C312.272 287.85 317.013 287.85 321.713 287.651C325.168 287.532 325.811 289.198 325.771 292.094C325.771 294.752 325.088 296.339 321.994 296.18C319.544 296.061 317.093 296.18 314.642 296.18H314.602Z" fill="#83BEFB"/>
<path d="M287.926 262.191C289.975 262.191 292.024 262.35 294.073 262.191C297.568 261.874 298.733 263.302 298.693 266.714C298.693 270.046 297.166 270.839 294.193 270.72C289.894 270.562 285.596 270.562 281.297 270.72C278.163 270.839 276.355 270.205 276.355 266.476C276.355 262.866 277.922 261.914 281.176 262.152C283.426 262.31 285.676 262.152 287.926 262.152V262.191Z" fill="#83BEFB"/>
<path d="M315.044 262.185C317.093 262.185 319.142 262.343 321.19 262.185C324.646 261.867 325.851 263.256 325.811 266.707C325.811 270.039 324.324 270.873 321.311 270.754C317.012 270.595 312.714 270.595 308.415 270.754C305.281 270.873 303.433 270.317 303.473 266.548C303.473 262.938 305 261.947 308.294 262.185C310.544 262.343 312.794 262.185 315.044 262.185Z" fill="#83BEFB"/>
<path d="M287.362 287.697C289.612 287.697 291.862 287.856 294.112 287.658C297.647 287.34 298.692 288.888 298.692 292.26C298.692 295.671 297.044 296.306 294.112 296.227C289.411 296.108 284.671 296.108 279.97 296.227C276.716 296.306 276.395 294.441 276.395 291.942C276.395 289.443 276.756 287.539 279.97 287.697C282.421 287.816 284.871 287.697 287.322 287.697H287.362Z" fill="#83BEFB"/>
<path d="M287.923 274.363C289.972 274.363 292.021 274.522 294.07 274.363C297.565 274.046 298.69 275.474 298.69 278.886C298.69 282.218 297.163 283.011 294.15 282.892C289.851 282.734 285.553 282.734 281.254 282.892C278.08 283.011 276.312 282.377 276.312 278.648C276.312 275.037 277.919 274.085 281.174 274.323C283.423 274.482 285.673 274.323 287.923 274.323V274.363Z" fill="#83BEFB"/>
<path d="M315.044 274.364C317.093 274.364 319.142 274.523 321.19 274.364C324.646 274.047 325.851 275.435 325.811 278.887C325.811 282.219 324.324 283.052 321.311 282.933C317.012 282.775 312.714 282.775 308.415 282.933C305.281 283.052 303.433 282.497 303.473 278.728C303.473 275.118 305 274.126 308.294 274.364C310.544 274.523 312.794 274.364 315.044 274.364Z" fill="#83BEFB"/>
<path d="M444.164 314.433C446.213 314.433 448.221 314.552 450.27 314.433C453.404 314.235 454.007 315.941 453.966 318.519C453.886 320.86 453.966 322.843 450.632 322.962C447.217 323.081 443.842 323.835 440.427 324.073C437.133 324.311 434.16 324.668 434.08 319.511C433.999 314.274 436.772 314.116 440.548 314.394C441.753 314.473 442.999 314.394 444.204 314.394L444.164 314.433Z" fill="#83BEFB"/>
<path d="M443.686 275.559C441.837 275.559 439.989 275.44 438.141 275.559C434.646 275.837 434.164 273.893 434.164 271.076C434.164 268.339 434.968 266.911 438.021 267.03C441.717 267.189 445.413 267.189 449.069 267.03C452.203 266.911 454.051 267.466 454.011 271.235C454.011 274.845 452.484 275.837 449.19 275.559C447.341 275.401 445.493 275.559 443.645 275.559H443.686Z" fill="#83BEFB"/>
<path d="M419.258 240.326C417.209 240.326 415.16 240.247 413.111 240.326C409.857 240.524 409.535 238.541 409.535 236.041C409.535 233.542 409.897 231.678 413.151 231.797C416.847 231.916 420.503 231.876 424.199 231.797C427.092 231.717 429.301 231.797 429.382 235.764C429.462 239.771 427.614 240.604 424.159 240.326C422.552 240.167 420.905 240.326 419.258 240.326Z" fill="#83BEFB"/>
<path d="M419.258 228.787C417.209 228.787 415.16 228.708 413.111 228.787C409.857 228.985 409.535 227.002 409.535 224.502C409.535 222.003 409.897 220.139 413.151 220.258C416.847 220.377 420.503 220.337 424.199 220.258C427.092 220.178 429.301 220.258 429.382 224.225C429.462 228.231 427.614 229.065 424.159 228.787C422.552 228.628 420.905 228.787 419.258 228.787Z" fill="#83BEFB"/>
<path d="M443.881 231.83C445.93 231.83 447.979 231.949 450.028 231.83C453.563 231.552 453.925 233.615 453.965 236.392C453.965 239.169 453.041 240.478 450.068 240.359C446.814 240.24 443.519 240.359 440.225 240.359C437.212 240.359 434.078 241.113 434.078 236.114C434.078 231.155 437.172 231.869 440.185 231.869C441.43 231.869 442.635 231.869 443.881 231.869V231.83Z" fill="#83BEFB"/>
<path d="M419.54 252.459C417.491 252.459 415.442 252.34 413.393 252.459C410.42 252.657 409.496 251.269 409.496 248.492C409.496 245.715 409.858 243.731 413.433 243.93C416.687 244.088 419.982 243.93 423.276 243.93C426.329 243.93 429.383 243.255 429.383 248.174C429.383 253.133 426.249 252.38 423.236 252.419C421.991 252.419 420.785 252.419 419.54 252.419V252.459Z" fill="#83BEFB"/>
<path d="M444.208 299.831C442.159 299.831 440.11 299.712 438.061 299.831C434.485 300.108 434.164 298.006 434.164 295.268C434.164 292.452 435.128 291.182 438.061 291.301C441.315 291.42 444.61 291.301 447.904 291.301C450.917 291.301 454.051 290.587 454.051 295.546C454.051 300.505 450.957 299.791 447.904 299.791C446.658 299.791 445.453 299.791 444.208 299.791V299.831Z" fill="#83BEFB"/>
<path d="M419.177 299.838C417.128 299.838 415.079 299.758 413.03 299.838C409.736 299.996 409.575 297.933 409.535 295.514C409.535 292.935 410.017 291.189 413.191 291.348C416.887 291.507 420.543 291.467 424.239 291.348C427.212 291.269 429.301 291.467 429.341 295.395C429.422 299.481 427.373 300.155 424.038 299.877C422.391 299.758 420.784 299.877 419.137 299.877L419.177 299.838Z" fill="#83BEFB"/>
<path d="M419.5 275.552C417.451 275.552 415.402 275.433 413.353 275.552C410.34 275.75 409.496 274.283 409.496 271.545C409.496 268.729 409.938 266.825 413.473 267.023C416.728 267.221 420.022 267.063 423.316 267.023C426.41 267.023 429.423 266.428 429.383 271.307C429.383 276.306 426.169 275.473 423.196 275.512C421.95 275.512 420.745 275.512 419.5 275.512V275.552Z" fill="#83BEFB"/>
<path d="M444.209 287.693C442.16 287.693 440.111 287.574 438.062 287.693C435.089 287.892 434.125 286.503 434.165 283.726C434.165 280.949 434.527 278.966 438.102 279.164C441.357 279.323 444.651 279.164 447.945 279.164C450.999 279.164 454.052 278.49 454.052 283.409C454.052 288.368 450.918 287.614 447.905 287.654C446.66 287.654 445.454 287.654 444.209 287.654V287.693Z" fill="#83BEFB"/>
<path d="M419.701 279.204C421.75 279.204 423.799 279.283 425.848 279.204C429.183 279.045 429.263 281.187 429.303 283.568C429.343 286.186 428.741 287.812 425.567 287.693C421.67 287.535 417.773 287.535 413.916 287.693C410.823 287.812 409.537 286.821 409.497 283.607C409.457 280.116 410.823 278.847 414.197 279.164C416.005 279.323 417.894 279.164 419.742 279.164L419.701 279.204Z" fill="#83BEFB"/>
<path d="M443.683 263.373C441.634 263.373 439.585 263.294 437.536 263.373C434.683 263.492 434.161 261.866 434.201 259.525C434.201 257.343 434.965 256.113 437.375 256.113C441.674 256.153 445.973 256.193 450.271 256.113C452.883 256.034 453.927 257.145 453.927 259.684C453.927 262.143 453.124 263.492 450.432 263.413C448.182 263.333 445.932 263.413 443.683 263.413V263.373Z" fill="#83BEFB"/>
<path d="M419.743 263.374C417.694 263.374 415.645 263.295 413.596 263.374C410.784 263.533 409.458 262.541 409.539 259.566C409.579 256.948 410.744 255.996 413.275 256.075C417.373 256.154 421.471 256.154 425.568 256.075C428.099 256.035 429.265 256.908 429.305 259.566C429.385 262.502 428.059 263.533 425.247 263.374C423.399 263.255 421.551 263.374 419.743 263.374Z" fill="#83BEFB"/>
<path d="M419.458 310.745C417.209 310.745 414.959 310.705 412.709 310.745C410.258 310.824 409.575 309.515 409.535 307.333C409.535 304.953 410.057 303.446 412.87 303.485C417.168 303.565 421.467 303.565 425.766 303.485C428.498 303.446 429.261 304.794 429.261 307.214C429.261 309.793 428.176 310.904 425.605 310.785C423.556 310.705 421.507 310.785 419.458 310.785V310.745Z" fill="#83BEFB"/>
<path d="M443.645 310.748C441.596 310.748 439.548 310.669 437.499 310.748C434.646 310.867 434.164 309.201 434.164 306.86C434.164 304.678 434.968 303.449 437.378 303.488C441.677 303.528 445.976 303.568 450.274 303.488C452.886 303.409 453.93 304.52 453.93 307.098C453.93 309.558 453.127 310.907 450.395 310.788C448.145 310.708 445.895 310.788 443.645 310.788V310.748Z" fill="#83BEFB"/>
<path d="M444.368 228.187C442.319 228.187 440.27 228.107 438.221 228.187C435.409 228.345 434.083 227.354 434.164 224.378C434.204 221.76 435.369 220.808 437.9 220.887C441.998 220.967 446.096 220.967 450.193 220.887C452.724 220.848 453.89 221.72 453.93 224.378C454.01 227.314 452.684 228.345 449.872 228.187C448.024 228.068 446.176 228.187 444.368 228.187Z" fill="#83BEFB"/>
<path d="M419.46 333.829C418.857 335.297 418.335 334.424 417.812 333.75C418.375 333.75 418.897 333.79 419.46 333.829Z" fill="#FDFDFE"/>
<path d="M367.793 359.021L478.395 350.928L478.556 342.32L466.985 328.95L434.202 333.87L427.935 331.608L404.754 333.076V319.271L395.875 310.781L361.606 324.19L356.785 357.117L367.793 359.021Z" fill="white"/>
<path d="M354.094 370.291L479.922 359.976L479.52 350.812L367.793 359.024L354.094 360.175V370.291Z" fill="#78AEDE"/>
<path d="M404.754 336.471L434.041 333.779L427.372 328.797L404.754 319.477V336.471Z" fill="#A6CCEC"/>
<path d="M428.058 318.227H411.586C411.12 318.227 410.742 318.604 410.742 319.07V325.137C410.742 325.603 411.12 325.98 411.586 325.98H428.058C428.524 325.98 428.901 325.603 428.901 325.137V319.07C428.901 318.604 428.524 318.227 428.058 318.227Z" fill="#83BEFB"/>
<path d="M479.799 240.448L479.92 255.955L464.332 234.903L469.113 228.234L479.799 240.448Z" fill="white"/>
<path d="M261.648 177.982L288.847 177.781L291.98 182.683L273.942 186.178L259.398 182.683L261.648 177.982Z" fill="white"/>
<path d="M133.691 378.096C133.691 378.297 133.691 378.498 133.61 378.699C133.61 378.779 133.45 378.94 133.409 378.899C133.168 378.859 133.048 378.658 133.168 378.417C133.249 378.257 133.45 378.136 133.61 378.016H133.691V378.096Z" fill="#A8CDED"/>
<path d="M133.613 378.056C133.613 377.533 133.694 376.971 134.176 376.609C134.256 376.69 134.377 376.77 134.457 376.85C134.377 377.373 134.216 377.815 133.694 378.096L133.613 378.056Z" fill="#E7EBF3"/>
<path d="M231.309 370.39L457.787 362.117" stroke="#EEF7FF" stroke-width="6.2049"/>
<path d="M369.057 306.768C360.999 329.587 342.894 376.442 336.702 391.604C335.825 393.752 337.48 396.243 339.8 396.243H482.528C483.826 396.243 484.987 395.435 485.437 394.218L518.249 305.627C519.01 303.572 517.46 301.398 515.269 301.447L371.915 304.704C370.622 304.734 369.488 305.548 369.057 306.768Z" fill="#1789FC"/>
<path d="M369.896 331.286L377.467 313.162C377.788 312.392 378.541 311.891 379.375 311.891H394.943C396.404 311.891 397.405 313.364 396.866 314.722L389.674 332.846C389.361 333.634 388.599 334.151 387.751 334.151H371.805C370.328 334.151 369.327 332.648 369.896 331.286Z" fill="white"/>
<path d="M396.841 331.286L404.412 313.162C404.734 312.392 405.486 311.891 406.32 311.891H421.889C423.349 311.891 424.35 313.364 423.811 314.722L416.619 332.846C416.306 333.634 415.544 334.151 414.697 334.151H398.75C397.273 334.151 396.272 332.648 396.841 331.286Z" fill="white"/>
<path d="M423.791 331.286L431.361 313.162C431.683 312.392 432.435 311.891 433.27 311.891H448.838C450.299 311.891 451.299 313.364 450.76 314.722L443.568 332.846C443.256 333.634 442.494 334.151 441.646 334.151H425.699C424.223 334.151 423.222 332.648 423.791 331.286Z" fill="white"/>
<path d="M451.912 331.286L459.482 313.162C459.804 312.392 460.556 311.891 461.391 311.891H476.959C478.42 311.891 479.42 313.364 478.881 314.722L471.689 332.846C471.377 333.634 470.615 334.151 469.767 334.151H453.82C452.344 334.151 451.343 332.648 451.912 331.286Z" fill="white"/>
<path d="M480.025 331.286L487.596 313.162C487.917 312.392 488.67 311.891 489.504 311.891H505.072C506.533 311.891 507.533 313.364 506.995 314.722L499.803 332.846C499.49 333.634 498.728 334.151 497.88 334.151H481.934C480.457 334.151 479.456 332.648 480.025 331.286Z" fill="white"/>
<path d="M385.186 358.196L393.06 340.072C393.388 339.317 394.133 338.828 394.957 338.828H411.3C412.773 338.828 413.774 340.324 413.212 341.685L405.732 359.809C405.413 360.583 404.658 361.089 403.821 361.089H387.083C385.594 361.089 384.593 359.562 385.186 358.196Z" fill="white"/>
<path d="M358.237 358.196L366.11 340.072C366.439 339.317 367.184 338.828 368.007 338.828H384.351C385.824 338.828 386.825 340.324 386.263 341.685L378.783 359.809C378.464 360.583 377.709 361.089 376.871 361.089H360.134C358.645 361.089 357.644 359.562 358.237 358.196Z" fill="white"/>
<path d="M375.756 385.168L383.326 367.045C383.648 366.275 384.4 365.773 385.235 365.773H400.803C402.263 365.773 403.264 367.247 402.725 368.605L395.533 386.728C395.22 387.516 394.458 388.034 393.611 388.034H377.664C376.187 388.034 375.186 386.531 375.756 385.168Z" fill="white"/>
<path d="M412.135 358.196L420.009 340.072C420.337 339.317 421.082 338.828 421.906 338.828H438.249C439.722 338.828 440.723 340.324 440.161 341.685L432.682 359.809C432.362 360.583 431.607 361.089 430.77 361.089H414.032C412.543 361.089 411.542 359.562 412.135 358.196Z" fill="white"/>
<path d="M440.257 358.196L448.13 340.072C448.458 339.317 449.203 338.828 450.027 338.828H466.37C467.843 338.828 468.844 340.324 468.282 341.685L460.803 359.809C460.483 360.583 459.728 361.089 458.891 361.089H442.154C440.664 361.089 439.663 359.562 440.257 358.196Z" fill="white"/>
<path d="M468.37 358.196L476.243 340.072C476.571 339.317 477.316 338.828 478.14 338.828H494.484C495.957 338.828 496.958 340.324 496.396 341.685L488.916 359.809C488.596 360.583 487.842 361.089 487.004 361.089H470.267C468.778 361.089 467.776 359.562 468.37 358.196Z" fill="white"/>
<path d="M348.806 385.168L356.377 367.045C356.698 366.275 357.451 365.773 358.285 365.773H373.853C375.314 365.773 376.315 367.247 375.776 368.605L368.584 386.728C368.271 387.516 367.509 388.034 366.661 388.034H350.715C349.238 388.034 348.237 386.531 348.806 385.168Z" fill="white"/>
<path d="M402.701 385.168L410.271 367.045C410.593 366.275 411.346 365.773 412.18 365.773H427.748C429.209 365.773 430.209 367.247 429.67 368.605L422.478 386.728C422.166 387.516 421.404 388.034 420.556 388.034H404.609C403.133 388.034 402.132 386.531 402.701 385.168Z" fill="white"/>
<path d="M431.417 383.736L438.123 367.68C438.605 366.525 439.734 365.773 440.986 365.773H454.342C456.533 365.773 458.034 367.983 457.226 370.02L450.855 386.076C450.386 387.258 449.243 388.034 447.971 388.034H434.279C432.064 388.034 430.563 385.779 431.417 383.736Z" fill="white"/>
<path d="M458.939 385.168L466.51 367.045C466.831 366.275 467.584 365.773 468.418 365.773H483.986C485.447 365.773 486.448 367.247 485.909 368.605L478.717 386.728C478.404 387.516 477.642 388.034 476.794 388.034H460.848C459.371 388.034 458.37 386.531 458.939 385.168Z" fill="white"/>
<path d="M230.609 175.771L198.473 190.5C196.418 191.442 194.078 189.941 194.078 187.68V186.258C194.078 185.032 194.8 183.921 195.921 183.423L230.631 167.996C231.076 167.798 231.561 167.708 232.046 167.732L384.352 175.348C385.609 175.41 386.704 176.227 387.122 177.414L387.984 179.853C388.72 181.941 387.096 184.106 384.886 183.984L232.074 175.494C231.571 175.466 231.068 175.561 230.609 175.771Z" fill="#83BEFB"/>
<path d="M310.423 169.102C309.861 168.821 309.178 168.741 308.575 168.66C307.812 168.58 307.089 168.66 306.325 168.66C284.47 168.66 262.575 168.66 240.72 168.66C239.755 168.66 238.791 168.66 237.827 168.62C237.064 168.58 236.662 168.138 236.622 167.375C236.381 164.281 236.14 161.148 235.899 158.054C235.617 154.077 235.376 150.1 235.095 146.162C235.095 145.841 235.055 145.52 234.975 145.198C234.292 141.904 234.734 138.529 234.01 135.235C233.729 133.989 234.493 133.266 235.617 132.784C237.907 131.82 240.157 130.775 242.407 129.811C250.281 126.356 258.196 122.901 266.07 119.446C272.257 116.714 278.444 113.942 284.671 111.21C292.746 107.675 300.862 104.139 308.937 100.604C309.7 100.242 310.504 99.8406 311.146 99.3184C312.111 98.555 312.191 97.5507 311.629 96.4258C311.146 95.4616 310.383 94.9795 309.339 94.9393C308.374 94.9393 307.41 94.9393 306.446 94.9393C279.609 94.9393 252.812 94.9393 225.975 94.9393C225.011 94.9393 224.047 94.9393 223.083 94.9393C222.199 94.9393 221.677 94.4572 221.396 93.6939C221.114 93.0109 220.913 92.2877 220.672 91.5646C219.347 87.5873 218.021 83.6099 216.695 79.6326C216.333 78.5077 216.092 77.3426 215.771 76.2177C215.088 75.3339 214.927 74.2492 214.566 73.2448C212.758 67.7408 210.99 62.2368 209.182 56.7328C208.901 55.9293 208.66 55.0857 208.258 54.3223C207.776 53.3983 207.013 52.876 205.928 52.9162C204.843 52.9162 204.08 53.3983 203.638 54.4027C203.357 55.0857 203.116 55.8088 202.875 56.532C201.83 59.7058 200.786 62.8395 199.701 66.0133C198.536 69.4683 197.29 72.8832 196.125 76.3383C194.277 82.0833 192.429 87.7881 190.541 93.5332C190.22 94.5777 189.537 95.1402 188.372 95.0196C187.849 94.9795 187.287 95.0196 186.765 95.0196C164.99 95.0196 143.255 95.0196 121.48 95.0196C120.637 95.0196 119.753 94.9393 118.909 94.8991C117.744 94.9393 116.539 95.0196 115.374 95.0196C111.597 95.0196 107.861 95.0196 104.084 95.0196C103.321 95.0196 102.558 95.0196 101.835 95.2205C100.83 95.4616 100.107 96.1445 99.9063 97.1891C99.7054 98.2336 100.107 99.1577 100.991 99.7201C101.875 100.323 102.879 100.724 103.843 101.166C106.495 102.372 109.106 103.537 111.758 104.702C114.932 106.068 118.106 107.353 121.239 108.759C127.627 111.572 134.015 114.464 140.443 117.277C150.085 121.535 159.767 125.713 169.409 129.972C171.659 130.976 173.909 132.021 176.199 132.985C177.364 133.467 177.846 134.271 177.725 135.516C177.524 137.203 177.283 138.931 177.163 140.658C176.882 144.716 176.641 148.814 176.359 152.872C176.359 153.193 176.319 153.514 176.279 153.836C175.917 157.693 175.435 161.549 175.194 165.406C174.953 169.022 175.194 168.861 171.458 168.861C159.606 168.861 147.755 168.861 135.903 168.861C125.578 168.861 115.213 168.861 104.888 168.861C104.044 168.861 103.16 168.821 102.317 168.942C101.192 169.143 100.348 169.785 100.067 170.991C99.7857 172.276 100.228 173.24 101.473 173.923C102.036 174.245 102.638 174.526 103.201 174.767C107.62 176.776 111.999 178.785 116.418 180.793C127.065 185.695 137.751 190.556 148.398 195.457C155.629 198.792 162.861 202.166 170.092 205.461C171.378 206.063 171.98 206.787 171.82 208.152C171.619 209.639 171.418 211.125 171.297 212.652C171.016 216.71 170.936 220.848 170.413 224.865C170.052 227.637 170.052 230.45 169.771 233.222C169.248 237.922 168.847 242.623 168.565 247.363C168.364 250.457 168.123 253.55 167.159 256.563C164.387 265.161 161.655 273.758 158.883 282.396C154.584 295.814 150.246 309.233 145.907 322.651C142.291 333.82 138.675 344.948 135.019 356.117C132.327 364.393 129.596 372.669 126.904 380.945C125.658 384.963 124.453 388.94 123.168 392.958C122.967 393.56 122.605 394.123 122.324 394.685C122.203 395.328 122.003 395.81 121.561 396.091C121.561 396.212 121.561 396.292 121.561 396.413H128.872C129.194 395.207 129.716 394.444 130.319 393.721C133.051 389.382 135.622 384.963 138.675 380.825C141.367 376.526 144.018 372.227 146.75 367.969C153.419 357.563 160.129 347.158 166.838 336.753C169.971 331.851 173.145 326.99 176.199 322.049C177.163 320.482 178.328 319.96 180.176 319.96C197.411 320 214.646 320.04 231.841 319.96C233.609 319.96 234.573 320.602 235.457 322.008C243.17 334.181 250.924 346.314 258.718 358.487C263.057 365.277 267.436 372.067 271.815 378.856C272.217 379.499 272.538 380.142 272.9 380.825C274.105 381.829 274.587 383.275 275.431 384.521C277.44 387.574 279.328 390.668 281.296 393.721C281.618 394.163 282.02 394.524 282.22 395.006H282.06C282.301 395.248 282.542 395.529 282.783 395.81H289.05C289.09 395.448 289.131 395.167 289.171 394.846C289.05 394.685 288.97 394.524 288.93 394.283C287.443 389.583 285.635 385.043 284.51 380.262C283.386 376.888 282.301 373.513 281.176 370.138C277.078 357.443 272.98 344.748 268.882 332.052C264.182 317.509 259.481 302.966 254.781 288.422C251.286 277.575 247.75 266.728 244.215 255.88C243.934 255.077 243.612 254.233 243.572 253.39C243.492 251.14 243.17 248.89 242.969 246.64C242.608 242.582 242.407 238.485 242.166 234.427C242.166 233.985 242.126 233.583 242.086 233.141C241.724 229.526 241.322 225.87 241.041 222.254C240.639 217.433 240.278 212.612 239.876 207.791C239.796 206.907 240.077 206.345 240.84 205.943C241.523 205.621 242.206 205.26 242.889 204.938C247.59 202.769 252.29 200.64 256.991 198.47C266.271 194.212 275.551 189.873 284.832 185.614C288.528 183.887 292.304 182.28 296.001 180.552C300.299 178.584 304.598 176.575 308.897 174.566C309.58 174.245 310.263 173.923 310.865 173.481C312.472 172.276 312.271 170.147 310.464 169.303L310.423 169.102ZM235.135 211.527C235.135 211.648 235.135 211.728 235.176 211.849C235.417 215.585 235.457 219.401 236.019 223.098C236.541 226.633 236.501 230.168 236.943 233.704C237.506 238.284 237.586 242.944 237.907 247.524C237.907 247.725 237.787 247.886 237.546 248.448C234.252 246.078 231.238 243.868 228.185 241.658C223.203 238.043 218.222 234.507 213.32 230.811C209.905 228.24 210.066 228.762 213.32 226.352C219.989 221.41 226.699 216.549 233.368 211.648C233.609 211.447 233.93 211.286 234.211 211.166C234.613 210.925 235.135 211.166 235.216 211.567L235.135 211.527ZM229.069 251.863C221.195 251.863 213.32 251.863 205.486 251.863C197.532 251.863 189.537 251.863 181.582 251.863C181.06 251.863 180.497 251.863 179.975 251.863C179.694 251.863 179.533 251.783 179.533 251.501C179.533 251.3 179.573 251.059 179.734 250.939C180.015 250.617 180.337 250.336 180.698 250.055C188.532 244.35 196.366 238.645 204.201 232.981C204.442 232.78 204.763 232.659 205.004 232.458C205.727 231.936 206.37 232.016 207.053 232.539C212.758 236.757 218.503 240.935 224.248 245.113C226.578 246.841 228.948 248.528 231.279 250.256C231.52 250.457 231.801 250.658 231.962 250.939C232.082 251.1 232.122 251.3 232.122 251.501C232.122 251.783 231.962 251.863 231.68 251.863C230.837 251.863 229.953 251.863 229.109 251.863H229.069ZM231.479 257.447C231.479 257.648 231.359 257.849 231.238 258.01C231.118 258.17 230.917 258.291 230.716 258.411C222.922 263.795 215.128 269.138 207.334 274.522C206.33 275.205 205.526 275.405 204.442 274.642C196.527 269.098 188.573 263.594 180.618 258.05C180.377 257.889 180.015 257.728 180.216 257.287C180.738 256.804 181.421 257.045 182.024 257.045C197.853 257.045 213.682 257.045 229.511 257.045C230.033 257.045 230.596 257.086 231.118 257.126C231.399 257.126 231.56 257.246 231.52 257.528L231.479 257.447ZM204.08 224.102C199.862 221.129 195.724 218.076 191.545 215.022C189.537 213.576 187.568 212.09 185.559 210.643C184.876 210.121 184.193 209.599 183.551 209.036C183.43 208.916 183.39 208.675 183.39 208.474C183.39 208.193 183.551 208.112 183.832 208.112C184.676 208.112 185.559 208.112 186.403 208.112C192.871 208.112 199.299 208.112 205.767 208.112C212.637 208.112 219.547 208.112 226.417 208.112C226.94 208.112 227.502 208.112 228.024 208.233C228.105 208.233 228.225 208.635 228.145 208.795C227.824 209.518 227.141 209.88 226.538 210.322C220.311 214.902 214.043 219.442 207.776 224.022C206.129 225.227 205.687 225.307 204.04 224.142L204.08 224.102ZM225.493 100.042C228.707 100.042 231.962 100.042 235.176 100.042C254.018 100.042 272.9 100.042 291.742 100.042H295.599C294.835 101.247 293.952 101.407 293.228 101.769C273.141 110.608 253.094 119.446 232.886 128.325C232.524 127.642 232.243 127.2 232.082 126.718C229.31 118.04 226.136 109.442 223.645 100.845C224.168 99.921 224.891 100.082 225.493 100.082V100.042ZM199.942 149.296C200.103 149.417 200.263 149.577 200.424 149.698C200.866 150.1 200.906 150.742 200.464 151.104C199.621 151.787 198.777 152.43 197.893 153.073C192.791 156.849 187.689 160.585 182.586 164.362C181.984 164.804 181.341 165.165 180.738 165.527C179.935 164.763 180.216 163.96 180.377 163.317C180.738 161.951 180.698 160.545 180.819 159.139C181.18 154.639 181.622 150.18 181.984 145.68C182.104 144.274 182.145 142.868 182.185 141.502C182.185 140.096 182.345 138.73 183.069 137.043C183.711 137.444 184.153 137.726 184.595 138.047C189.697 141.783 194.84 145.56 199.942 149.296ZM189.095 134.954C189.175 134.753 189.255 134.552 189.336 134.351H191.545C201.107 134.351 210.709 134.351 220.271 134.351C220.913 134.351 221.556 134.351 222.199 134.471C222.279 134.471 222.4 134.873 222.32 134.994C222.159 135.275 221.958 135.516 221.717 135.717C217.298 138.971 212.878 142.185 208.459 145.439C208.098 145.68 207.776 145.962 207.415 146.203C206.29 147.006 205.205 146.886 204.16 146.082C201.469 144.114 198.817 142.105 196.125 140.136C193.795 138.409 191.505 136.721 189.175 134.994L189.095 134.954ZM186.644 167.777C187.648 166.973 188.653 166.17 189.697 165.406C194.358 161.951 199.018 158.536 203.718 155.081C204.08 154.84 204.401 154.599 204.763 154.318C205.446 153.796 206.129 153.796 206.812 154.318C208.379 155.443 209.946 156.568 211.512 157.693C215.691 160.746 219.829 163.799 223.967 166.853C224.208 167.053 224.489 167.254 224.69 167.455C224.891 167.696 225.212 167.937 224.971 168.259C224.851 168.419 224.65 168.54 224.449 168.54C223.806 168.58 223.163 168.54 222.52 168.54C216.936 168.54 211.352 168.54 205.767 168.54C199.982 168.54 194.157 168.54 188.372 168.54C187.849 168.54 187.287 168.5 186.765 168.419C186.684 168.419 186.604 168.299 186.564 168.259C186.403 168.058 186.443 167.857 186.644 167.696V167.777ZM211.713 151.626C211.472 151.425 211.191 151.224 210.99 150.983C210.669 150.622 210.669 150.14 211.03 149.859C211.593 149.376 212.236 148.935 212.838 148.493C217.78 144.877 222.721 141.261 227.663 137.645C228.466 137.043 229.069 137.324 229.23 138.248C229.23 138.368 229.27 138.449 229.27 138.569C229.23 141.783 229.792 144.997 229.953 148.211C230.194 152.912 230.636 157.612 231.158 162.313C231.198 162.755 231.198 163.156 231.238 163.598C231.238 163.92 231.238 164.241 231.198 164.563C231.158 165.005 230.636 165.286 230.234 165.045C229.672 164.723 229.149 164.362 228.627 164C223.003 159.862 217.338 155.764 211.713 151.626ZM195.925 93.3725C197.25 89.2746 198.656 85.2169 199.982 81.1593C201.67 75.9767 203.357 70.7539 205.044 65.5312C205.165 65.1294 205.406 64.7678 205.687 64.1652C206.41 64.808 206.571 65.4508 206.772 66.0535C209.624 74.8116 212.477 83.6099 215.329 92.3681C215.45 92.7698 215.61 93.1716 215.731 93.5733C215.892 94.2965 215.53 94.7786 214.726 94.8188C213.561 94.8589 212.356 94.8589 211.191 94.8589C207.013 94.8589 202.794 94.8589 198.616 94.8589C198.094 94.8589 197.532 94.8589 197.009 94.8589C196.005 94.7786 195.683 94.3367 195.965 93.3725H195.925ZM192.911 102.773C193.112 102.171 193.313 101.568 193.594 100.966C193.835 100.443 194.237 100.122 194.84 100.082C195.362 100.082 195.925 100.042 196.447 100.042C202.674 100.042 208.901 100.042 215.168 100.042C215.691 100.042 216.253 100.042 216.775 100.082C217.499 100.122 217.981 100.483 218.262 101.126C218.503 101.729 218.704 102.331 218.905 102.934C221.476 110.688 224.047 118.442 226.618 126.195C226.859 126.919 227.06 127.642 227.221 128.365C227.261 128.686 227.06 129.008 226.699 129.048C226.297 129.128 225.855 129.168 225.413 129.168C212.195 129.168 198.978 129.168 185.72 129.168C185.399 129.168 185.077 129.088 184.635 129.008C184.475 128.003 184.796 127.32 185.037 126.597C187.689 118.643 190.34 110.688 192.992 102.773H192.911ZM118.266 101.729C117.664 101.488 117.101 101.166 116.539 100.845C116.378 100.765 116.298 100.564 115.856 100.001H118.789C140.644 100.001 162.459 100.001 184.314 100.001C185.278 100.001 186.242 100.001 187.207 100.122C187.689 100.162 187.93 100.604 187.849 101.086C187.769 101.608 187.568 102.131 187.407 102.613C184.796 110.567 182.145 118.522 179.493 126.477C179.332 126.959 179.051 127.441 178.89 127.802C178.649 127.923 178.569 128.003 178.489 128.043C178.368 128.043 178.248 128.044 178.167 128.003C158.2 119.245 138.233 110.487 118.266 101.729ZM177.886 194.493C177.966 193.971 178.087 193.448 178.127 192.886C178.408 189.029 178.609 185.172 178.931 181.316C179.091 179.186 179.332 177.057 179.573 174.888C179.654 174.285 179.975 173.883 180.578 173.843C181.341 173.803 182.064 173.763 182.827 173.763C198.094 173.763 213.401 173.763 228.667 173.763C228.989 173.763 229.31 173.763 229.631 173.763C231.399 173.763 231.761 173.883 232.002 175.892C232.283 178.262 232.403 180.592 232.604 182.963C232.886 186.619 233.287 190.234 233.649 193.85C233.93 196.542 233.649 199.234 234.171 201.885C234.292 202.568 233.769 203.171 233.086 203.211C232.243 203.291 231.359 203.291 230.515 203.291C222.239 203.291 213.923 203.291 205.647 203.291C197.371 203.291 189.497 203.291 181.421 203.291C180.578 203.291 179.694 203.291 178.85 203.291C177.926 203.251 177.444 202.809 177.484 201.885C177.524 199.394 177.444 196.944 177.846 194.493H177.886ZM174.792 233.985C174.792 233.664 174.873 233.342 174.913 233.021C175.194 228.923 175.395 224.865 175.717 220.808C175.958 218.036 176.359 215.263 176.399 212.451C176.399 211.326 177.203 210.925 178.127 211.608C180.417 213.215 182.667 214.902 184.917 216.549C189.537 219.924 194.117 223.298 198.737 226.673C199.098 226.914 199.46 227.155 199.781 227.396C201.067 228.401 201.067 228.923 199.781 229.847C191.425 235.913 183.069 241.98 174.672 248.046C174.511 248.167 174.27 248.167 173.788 248.327C173.748 247.845 173.627 247.524 173.668 247.203C174.029 242.824 174.391 238.404 174.752 234.025L174.792 233.985ZM171.056 200.077C170.654 199.957 170.253 199.756 169.851 199.595C163.302 196.582 156.794 193.529 150.205 190.516C141.487 186.538 132.769 182.601 124.092 178.584C121.159 177.258 118.266 175.852 115.092 174.325C116.057 173.602 116.699 173.803 117.302 173.803C135.3 173.803 153.259 173.803 171.257 173.803C171.699 173.803 172.101 173.803 172.543 173.803C174.11 173.883 174.351 174.124 174.31 175.771C174.31 176.856 174.15 177.901 174.029 178.985C173.949 179.749 173.828 180.472 173.788 181.235C173.507 185.293 173.266 189.391 172.985 193.448C172.824 195.377 172.583 197.305 172.382 199.234C172.302 200.037 171.779 200.359 171.056 200.117V200.077ZM155.991 307.465C157.557 302.684 159.164 297.863 160.731 293.042C164.026 282.798 167.28 272.553 170.574 262.349C170.976 261.143 171.096 259.818 172.181 258.652C174.833 260.42 177.524 262.188 180.176 263.996C185.037 267.33 189.898 270.705 194.759 274.12C196.608 275.405 198.456 276.731 200.263 278.057C200.786 278.459 200.746 278.981 200.183 279.383C198.415 280.628 196.648 281.833 194.88 283.079C183.912 290.632 172.904 298.225 161.936 305.778C160.249 306.943 158.602 308.108 156.915 309.273C156.593 309.514 156.232 309.795 155.75 309.594C155.388 308.831 155.75 308.148 155.991 307.465ZM170.494 321.044C168.565 324.138 166.557 327.231 164.588 330.325C155.75 344.105 146.951 357.885 138.073 371.625C136.907 373.432 135.983 375.401 134.376 376.888C134.296 377.41 134.135 377.852 133.613 378.133C133.613 378.334 133.613 378.535 133.533 378.736C133.533 378.816 133.372 378.977 133.332 378.936C133.091 378.896 132.97 378.695 133.091 378.454C133.171 378.294 133.372 378.173 133.533 378.053C133.533 377.53 133.613 376.968 134.095 376.606C134.135 374.638 134.899 372.83 135.501 370.982C139.278 359.291 143.054 347.64 146.831 335.989C148.237 331.691 149.603 327.392 150.969 323.093C151.17 322.491 151.451 321.888 151.571 321.245C151.812 320.08 152.576 319.718 153.66 319.718C157.758 319.718 161.856 319.718 165.954 319.718C167.24 319.718 168.525 319.718 169.851 319.718C170.695 319.718 170.976 320.241 170.494 321.004V321.044ZM159.928 314.576C159.767 314.576 159.606 314.375 159.446 314.295C159.446 313.451 160.209 313.331 160.691 313.009C166.436 308.992 172.181 305.014 177.926 301.077C186.242 295.332 194.559 289.587 202.875 283.842C203.317 283.521 203.799 283.28 204.201 282.918C205.245 281.954 206.089 281.994 207.294 282.838C213.16 286.976 219.146 291.034 225.051 295.131C229.471 298.185 233.89 301.238 238.309 304.291C242.648 307.304 246.947 310.318 251.286 313.331C251.607 313.572 252.049 313.732 252.009 314.616C221.235 314.616 190.581 314.616 159.928 314.616V314.576ZM260.205 322.089C262.053 327.713 263.861 333.338 265.709 338.962C267.878 345.712 270.088 352.461 272.257 359.211C274.025 364.634 275.752 370.058 277.48 375.481C277.641 376.004 277.882 376.486 277.56 377.048C276.596 377.088 276.355 376.285 275.993 375.682C274.065 372.709 272.137 369.736 270.248 366.723C265.106 358.648 259.964 350.613 254.781 342.538C250.362 335.668 245.983 328.758 241.563 321.888C241.242 321.366 240.961 320.803 240.358 319.759C244.255 319.759 247.59 319.759 250.924 319.759C252.853 319.759 254.781 319.759 256.75 319.759C259.401 319.759 259.401 319.759 260.205 322.129V322.089ZM240.438 260.902C244.054 272.031 247.67 283.159 251.286 294.288C252.732 298.787 254.178 303.287 255.625 307.786C255.826 308.469 256.348 309.112 255.785 310.076C240.76 299.711 225.775 289.346 210.749 278.941C210.99 278.499 211.111 278.178 211.312 278.017C220.552 271.589 229.832 265.161 239.113 258.733C240.077 259.255 240.197 260.099 240.438 260.902ZM295.96 174.405C295.639 174.687 295.318 174.968 294.916 175.129C283.747 180.231 272.619 185.293 261.45 190.395C255.183 193.248 248.956 196.14 242.688 199.033C241.925 199.394 241.121 199.756 240.318 200.077C239.796 200.278 239.193 199.876 239.113 199.354C239.113 199.153 239.073 198.912 239.032 198.711C238.791 195.176 238.59 191.641 238.269 188.105C237.988 184.57 237.586 181.075 237.224 177.539C237.144 176.776 237.104 176.053 237.104 175.289C237.104 174.124 237.425 173.843 238.671 173.763C239.514 173.763 240.398 173.763 241.242 173.763C249.839 173.763 258.477 173.763 267.075 173.763C275.993 173.763 284.952 173.763 293.871 173.763C294.514 173.763 295.157 173.803 295.8 173.883C295.84 173.883 295.96 174.325 295.88 174.405H295.96Z" fill="#C5E1FF"/>
<circle cx="439.171" cy="156.913" r="61.0148" fill="#1789FC"/>
<path d="M425.093 187.259C429.231 180.068 433.369 172.876 437.466 165.685C438.632 163.636 438.712 162.11 435.659 161.386C431.36 160.342 427.182 158.775 423.003 157.248C421.356 156.646 419.267 155.762 421.678 153.472C433.811 142.062 445.903 130.612 458.759 119.966C458.799 119.926 459.081 120.127 459.924 120.528C455.344 128.684 450.965 137 446.064 144.955C443.573 149.013 443.613 150.82 448.715 151.744C452.854 152.508 456.831 154.115 460.889 155.32C461.813 155.601 463.018 155.24 463.339 156.606C463.701 158.092 462.576 158.494 461.692 159.378C453.938 166.971 446.305 174.684 438.632 182.358C432.083 188.585 425.575 194.812 419.026 200.999C418.665 200.878 418.303 200.758 417.941 200.637C420.312 196.178 422.722 191.719 425.093 187.259Z" fill="#FDFDFE"/>
</g>
<defs>
<clipPath id="clip0_6132_36983">
<rect width="594" height="406" fill="white"/>
</clipPath>
</defs>
</svg>
